<svg xmlns="http://www.w3.org/2000/svg" viewBox="0 0 16.77 15.92"><title>calendar</title><g id="Livello_2" data-name="Livello 2"><g id="Livello_2-2" data-name="Livello 2"><g id="calendar-svgrepo-com_2" data-name="calendar-svgrepo-com 2"><g id="Group_464" data-name="Group 464"><circle id="Ellipse_42" data-name="Ellipse 42" cx="4.27" cy="6.89" r="0.7" style="fill:#fff"/><circle id="Ellipse_43" data-name="Ellipse 43" cx="8.37" cy="6.89" r="0.7" style="fill:#fff"/><circle id="Ellipse_44" data-name="Ellipse 44" cx="12.46" cy="6.89" r="0.7" style="fill:#fff"/><circle id="Ellipse_45" data-name="Ellipse 45" cx="4.27" cy="11.63" r="0.7" style="fill:#fff"/><circle id="Ellipse_46" data-name="Ellipse 46" cx="8.37" cy="11.63" r="0.7" style="fill:#fff"/><circle id="Ellipse_47" data-name="Ellipse 47" cx="12.46" cy="11.63" r="0.7" style="fill:#fff"/><path id="Path_120" data-name="Path 120" d="M16.06,1.46H14.39V.71A.72.72,0,0,0,13,.71h0v.75H3.78V.71a.72.72,0,0,0-1.43,0v.75H.71A.71.71,0,0,0,0,2.17v13a.72.72,0,0,0,.71.72H16a.76.76,0,0,0,.75-.72v-13A.71.71,0,0,0,16.06,1.46Zm-.71,13.07h-14V2.89h1v.53a.72.72,0,0,0,1.43,0V2.89H13v.53a.71.71,0,0,0,.71.71.76.76,0,0,0,.72-.71V2.89h1Z" style="fill:#fff"/></g></g></g></g></svg>