<svg xmlns="http://www.w3.org/2000/svg" viewBox="0 0 17.15 17.19"><title>cart</title><g id="Livello_2" data-name="Livello 2"><g id="Livello_1-2" data-name="Livello 1"><g id="cart"><g id="Ellipse_1" data-name="Ellipse 1"><path d="M7.13,17.19A2.18,2.18,0,1,1,9.31,15,2.18,2.18,0,0,1,7.13,17.19Zm0-2.86a.68.68,0,1,0,.68.68A.68.68,0,0,0,7.13,14.33Z" style="fill:#fff"/></g><g id="Ellipse_2" data-name="Ellipse 2"><path d="M13.55,17.19A2.18,2.18,0,1,1,15.73,15,2.19,2.19,0,0,1,13.55,17.19Zm0-2.86a.68.68,0,1,0,.68.68A.69.69,0,0,0,13.55,14.33Z" style="fill:#fff"/></g><g id="Path_5" data-name="Path 5"><path d="M13.54,14.33H6.06a2.53,2.53,0,0,1-.63-5L3.32,2.46A1.35,1.35,0,0,0,2,1.5H0V0H2A2.89,2.89,0,0,1,4.75,2l2.68,8.75H6.07a1,1,0,1,0,0,2.06h7.48Z" style="fill:#fff"/></g><g id="Path_6" data-name="Path 6"><path d="M15,10.77H6.42a.75.75,0,1,1,0-1.5h8l1.09-4.92H5a.75.75,0,1,1,0-1.5H16.4a.76.76,0,0,1,.74.92l-1.43,6.41A.75.75,0,0,1,15,10.77Z" style="fill:#fff"/></g></g></g></g></svg>