<svg xmlns="http://www.w3.org/2000/svg" viewBox="0 0 16.47 15.11"><title>chat</title><g id="Livello_2" data-name="Livello 2"><g id="Livello_2-2" data-name="Livello 2"><path id="chat-bubbles-svgrepo-com" d="M16.34,11.93h0c.22.3.33,1.28-1.22,1.1a7.06,7.06,0,0,1-1.87-.43,7.33,7.33,0,0,1-1.34-.68,5.93,5.93,0,0,1-1.95.43,5.15,5.15,0,0,1-5.72,1.82,6.48,6.48,0,0,1-1,.49,6.22,6.22,0,0,1-1.86.43,4.09,4.09,0,0,1-.7,0,.71.71,0,0,1-.6-.43A.7.7,0,0,1,.13,14a7.15,7.15,0,0,0,.49-.73,4.23,4.23,0,0,0,.65-1.6A5.15,5.15,0,0,1,3.45,4.71l.18-.09a6.18,6.18,0,1,1,12,3.12,6.72,6.72,0,0,1-.39,1.09A4.43,4.43,0,0,0,16.34,11.93ZM4.8,6.19a4.81,4.81,0,0,1,9.62,0,4.9,4.9,0,0,1-.5,2.13.57.57,0,0,0-.07.22,4.81,4.81,0,0,0,.62,3,5.82,5.82,0,0,1-2.08-1,.7.7,0,0,0-.7-.06A4.82,4.82,0,0,1,4.8,6.19Zm-1.37.17a6.2,6.2,0,0,0,4.78,5.85,3.79,3.79,0,0,1-3.79.57.7.7,0,0,0-.63.06,5.29,5.29,0,0,1-1.06.54,6.18,6.18,0,0,1-.73.23,5.34,5.34,0,0,0,.56-1.38,4.92,4.92,0,0,0,.1-.67.77.77,0,0,0-.09-.39A3.78,3.78,0,0,1,3.43,6.36Z" style="fill:#fff;fill-rule:evenodd"/></g></g></svg>