<svg xmlns="http://www.w3.org/2000/svg" viewBox="0 0 26 26"><title>yellow-dot-arrow</title><g id="Livello_2" data-name="Livello 2"><g id="Livello_1-2" data-name="Livello 1"><g id="Group_479" data-name="Group 479"><path id="Rectangle_75" data-name="Rectangle 75" d="M13,0h0A13,13,0,0,1,26,13h0A13,13,0,0,1,13,26h0A13,13,0,0,1,0,13H0A13,13,0,0,1,13,0Z" style="fill:#fdc52c"/><path id="Path_72" data-name="Path 72" d="M10.82,17.69a.81.81,0,0,1-.82-.81.82.82,0,0,1,.24-.57L13.5,13,10.24,9.69a.81.81,0,1,1,1.15-1.15h0l3.82,3.88a.8.8,0,0,1,0,1.14L11.4,17.45A.78.78,0,0,1,10.82,17.69Z" style="fill:#16395f"/></g></g></g></svg>