<svg xmlns="http://www.w3.org/2000/svg" viewBox="0 0 28 28"><title>dot-arrow-blu</title><g id="Livello_2" data-name="Livello 2"><g id="Livello_1-2" data-name="Livello 1"><g id="Ellipse_27" data-name="Ellipse 27"><circle cx="14" cy="14" r="14" style="fill:none"/><path d="M14,28A14,14,0,1,1,28,14,14,14,0,0,1,14,28ZM14,1.5A12.5,12.5,0,1,0,26.5,14,12.52,12.52,0,0,0,14,1.5Z" style="fill:#16395f"/></g><g id="Path_12" data-name="Path 12"><path d="M12.39,19.38a.74.74,0,0,1-.53-.22.75.75,0,0,1,0-1.06L16,13.87,11.86,9.64a.75.75,0,0,1,0-1.06.75.75,0,0,1,1.06,0l4.7,4.76a.75.75,0,0,1,0,1.06l-4.7,4.76A.73.73,0,0,1,12.39,19.38Z" style="fill:#16395f"/></g></g></g></svg>