<svg xmlns="http://www.w3.org/2000/svg" viewBox="0 0 28.8 22.23"><title>filters</title><g id="Livello_2" data-name="Livello 2"><g id="Livello_2-2" data-name="Livello 2"><path d="M.5,3.14H18.57a2.64,2.64,0,0,0,5.19,0H28.3a.5.5,0,0,0,.5-.5.5.5,0,0,0-.5-.5H23.76a2.64,2.64,0,0,0-5.19,0H.5a.5.5,0,0,0-.5.5A.5.5,0,0,0,.5,3.14Z" style="fill:#16395F"/><path d="M28.3,10.62H9.1a2.64,2.64,0,0,0-5.19,0H.5a.5.5,0,0,0-.5.5.5.5,0,0,0,.5.5H3.91a2.64,2.64,0,0,0,5.19,0H28.3a.5.5,0,0,0,.5-.5A.5.5,0,0,0,28.3,10.62Z" style="fill:#16395F"/><path d="M28.3,19.09H21.12a2.64,2.64,0,0,0-5.19,0H.5a.5.5,0,0,0-.5.5.5.5,0,0,0,.5.5H15.93a2.64,2.64,0,0,0,5.19,0H28.3a.5.5,0,0,0,.5-.5A.5.5,0,0,0,28.3,19.09Z" style="fill:#16395F"/></g></g></svg>