<svg xmlns="http://www.w3.org/2000/svg" viewBox="0 0 24 24"><title>gear</title><g id="Livello_2" data-name="Livello 2"><g id="Livello_1-2" data-name="Livello 1"><path d="M24,13.62V10.38c-1.65-.58-2.69-.75-3.22-2h0c-.53-1.27.1-2.13.85-3.7L19.34,2.37c-1.56.74-2.43,1.38-3.7.85h0c-1.27-.53-1.44-1.58-2-3.22H10.38c-.58,1.63-.74,2.69-2,3.22h0c-1.27.53-2.13-.1-3.7-.85L2.37,4.66c.75,1.57,1.38,2.43.85,3.7S1.64,9.8,0,10.38v3.24c1.63.58,2.69.74,3.22,2s-.11,2.17-.85,3.71l2.29,2.29c1.56-.75,2.43-1.38,3.7-.85h0c1.27.53,1.43,1.58,2,3.22h3.24c.58-1.64.75-2.69,2-3.22h0c1.27-.53,2.12.1,3.7.85l2.29-2.29c-.75-1.56-1.38-2.43-.85-3.7S22.37,14.2,24,13.62ZM12,16a4,4,0,1,1,4-4A4,4,0,0,1,12,16Z" style="fill:#fff"/></g></g></svg>