<svg xmlns="http://www.w3.org/2000/svg" width="13.424" height="10.662" viewBox="0 0 13.424 10.662">
  <g id="mail-svgrepo-com" transform="translate(0.5 0.5)">
    <path id="Path_1" data-name="Path 1" d="M3,7.071a3.443,3.443,0,0,1,.105-1.218,1.38,1.38,0,0,1,.747-.747A3.443,3.443,0,0,1,5.071,5h8.283a3.443,3.443,0,0,1,1.218.105,1.381,1.381,0,0,1,.747.747,3.444,3.444,0,0,1,.105,1.218v5.522a3.444,3.444,0,0,1-.105,1.218,1.381,1.381,0,0,1-.747.747,3.444,3.444,0,0,1-1.218.105H5.071a3.444,3.444,0,0,1-1.218-.105,1.381,1.381,0,0,1-.747-.747A3.443,3.443,0,0,1,3,12.592Z" transform="translate(-3 -5)" fill="none" stroke="#16395f" stroke-linejoin="round" stroke-width="1"/>
    <path id="Path_2" data-name="Path 2" d="M4,6l4.613,4.036a1.38,1.38,0,0,0,1.818,0L15.043,6" transform="translate(-3.31 -5.31)" fill="none" stroke="#16395f" stroke-linecap="round" stroke-linejoin="round" stroke-width="1"/>
  </g>
</svg>
