<svg xmlns="http://www.w3.org/2000/svg" viewBox="0 0 13.45 10.69"><title>mail</title><g id="Livello_2" data-name="Livello 2"><g id="Livello_1-2" data-name="Livello 1"><g id="mail-svgrepo-com"><g id="Path_1" data-name="Path 1"><path d="M2.26,10.69a4,4,0,0,1-1-.13,1.91,1.91,0,0,1-1.08-1A3.72,3.72,0,0,1,0,8.06V2.61A4.23,4.23,0,0,1,.14,1.24a1.85,1.85,0,0,1,1-1.08A4.06,4.06,0,0,1,2.63,0h8.24a3.72,3.72,0,0,1,1.35.12,1.91,1.91,0,0,1,1.08,1,4.06,4.06,0,0,1,.14,1.45V8.11a4,4,0,0,1-.12,1.35,2,2,0,0,1-1,1.08,4.14,4.14,0,0,1-1.46.14H2.26ZM2.28,1a3.27,3.27,0,0,0-.78.1.91.91,0,0,0-.42.46,3.08,3.08,0,0,0-.07,1V8.11A3.27,3.27,0,0,0,1.1,9.2a.9.9,0,0,0,.46.41,3.08,3.08,0,0,0,1,.07h8.33A3.27,3.27,0,0,0,12,9.59a.91.91,0,0,0,.41-.45,3.17,3.17,0,0,0,.07-1V2.59a3.22,3.22,0,0,0-.09-1.09.87.87,0,0,0-.46-.42,3,3,0,0,0-1-.07H2.59Z" style="fill:#fff"/></g><g id="Path_2" data-name="Path 2"><path d="M6.73,6.08a1.85,1.85,0,0,1-1.24-.46l-4.61-4A.5.5,0,0,1,1.53.83l4.62,4a.88.88,0,0,0,1.16,0l4.61-4a.5.5,0,0,1,.66.75L8,5.62A1.89,1.89,0,0,1,6.73,6.08Z" style="fill:#fff"/></g></g></g></g></svg>