<svg xmlns="http://www.w3.org/2000/svg" viewBox="0 0 12.92 12.94"><title>phone</title><g id="Livello_2" data-name="Livello 2"><g id="Livello_1-2" data-name="Livello 1"><g id="phone-call-svgrepo-com"><path d="M9.91,12.94c-1.24,0-3.21-.78-6.18-3.75h0C-.7,4.76-.24,2.54.42,1.6h0A3.76,3.76,0,0,1,2.52,0,2,2,0,0,1,4.2.51C6.33,2.26,6.13,3.25,5.69,4.27c-.27.62-.47,1.07.73,2.21s1.69.94,2.29.69c1-.43,1.94-.59,3.7,1.55a2,2,0,0,1,.47,1.73,3.76,3.76,0,0,1-1.62,2.08A2.25,2.25,0,0,1,9.91,12.94ZM4.44,8.49c4.29,4.29,6,3.41,6.29,3.2a2.78,2.78,0,0,0,1.18-1.47,1.07,1.07,0,0,0-.27-.87C10.21,7.62,9.72,7.83,9.1,8.09c-.92.38-1.8.59-3.36-.89s-1.38-2.39-1-3.33c.29-.65.51-1.17-1.21-2.59A1,1,0,0,0,2.71,1,2.74,2.74,0,0,0,1.26,2.15c-.65.91-.13,3,3.18,6.34Zm5.48-3.1A.49.49,0,0,1,9.43,5a2,2,0,0,0-.5-1A2,2,0,0,0,8,3.5a.51.51,0,0,1-.41-.58.5.5,0,0,1,.58-.4,3,3,0,0,1,1.51.75,3,3,0,0,1,.78,1.53.49.49,0,0,1-.41.58Zm2.19-.31a.51.51,0,0,1-.5-.44,3.68,3.68,0,0,0-1.1-2.21A3.76,3.76,0,0,0,8.29,1.31.5.5,0,0,1,7.85.75.51.51,0,0,1,8.41.32a4.73,4.73,0,0,1,2.81,1.4,4.77,4.77,0,0,1,1.39,2.8.5.5,0,0,1-.44.55Z" style="fill:#fff"/></g></g></g></svg>