<svg xmlns="http://www.w3.org/2000/svg" viewBox="0 0 14.01 14.01"><title>search-white</title><g id="Livello_2" data-name="Livello 2"><g id="Livello_1-2" data-name="Livello 1"><g id="search-alt-svgrepo-com"><g id="Path_3" data-name="Path 3"><path d="M13.26,14a.75.75,0,0,1-.53-.22L10,11A.75.75,0,0,1,11,10l2.78,2.78a.75.75,0,0,1,0,1.06A.79.79,0,0,1,13.26,14Z" style="fill:#fff"/></g><g id="Path_4" data-name="Path 4"><path d="M6.31,12.62a6.31,6.31,0,1,1,6.31-6.31A6.32,6.32,0,0,1,6.31,12.62Zm0-11.12a4.81,4.81,0,1,0,4.81,4.81A4.82,4.82,0,0,0,6.31,1.5Z" style="fill:#fff"/></g></g></g></g></svg>