<svg xmlns="http://www.w3.org/2000/svg" viewBox="0 0 14.67 17.09"><title>user</title><g id="Livello_2" data-name="Livello 2"><g id="Livello_1-2" data-name="Livello 1"><g id="user-svgrepo-com"><g id="Path_7" data-name="Path 7"><path d="M7.33,8.9a4.45,4.45,0,1,1,4.45-4.45A4.46,4.46,0,0,1,7.33,8.9Zm0-7.4a3,3,0,1,0,2.95,3A3,3,0,0,0,7.33,1.5Z" style="fill:#fff"/></g><g id="Path_8" data-name="Path 8"><path d="M13,17.09H1.69A1.55,1.55,0,0,1,0,15.67v-.34C0,12.5,3.08,10.2,6.86,10.2H7.8c3.79,0,6.87,2.3,6.87,5.13v.34A1.56,1.56,0,0,1,13,17.09ZM1.5,15.56a.44.44,0,0,0,.19,0H13a.47.47,0,0,0,.19,0v-.23c0-2-2.41-3.63-5.37-3.63H6.86c-2.95,0-5.36,1.63-5.36,3.63Z" style="fill:#fff"/></g></g></g></g></svg>