<svg xmlns="http://www.w3.org/2000/svg" viewBox="0 0 276.13 46.99"><title>logo-white</title><g id="Livello_2" data-name="Livello 2"><g id="Livello_1-2" data-name="Livello 1"><path id="Path_13" data-name="Path 13" d="M3.12,34.84a6.5,6.5,0,0,1,3.82.94,3.23,3.23,0,0,1,1.33,2.81,3.74,3.74,0,0,1-.37,1.74A3,3,0,0,1,6.85,41.5a4.81,4.81,0,0,1-1.67.65,10.4,10.4,0,0,1-2.23.2H1.65v4.37H0V35.12a9.06,9.06,0,0,1,1.55-.23c.57,0,1.1-.06,1.57-.06m.14,1.44c-.7,0-1.24,0-1.61,0v4.62H2.89a8.57,8.57,0,0,0,1.52-.11,3.3,3.3,0,0,0,1.15-.37,1.91,1.91,0,0,0,.72-.72,2.39,2.39,0,0,0,.26-1.17,2.18,2.18,0,0,0-.27-1.12,1.91,1.91,0,0,0-.71-.7,3,3,0,0,0-1-.37,7.64,7.64,0,0,0-1.26-.1" style="fill:#fff"/><path id="Path_14" data-name="Path 14" d="M19.81,41.8c.18.22.41.52.69.89s.56.77.86,1.22.58.92.87,1.4A15.79,15.79,0,0,1,23,46.72h-1.8c-.23-.43-.47-.87-.74-1.31s-.54-.86-.81-1.26-.54-.78-.8-1.13l-.72-.92-.45,0H15.7v4.6H14.06V35.12a9.06,9.06,0,0,1,1.55-.23c.57,0,1.09-.06,1.57-.06a6.46,6.46,0,0,1,3.78.93,3.21,3.21,0,0,1,1.3,2.79,3.25,3.25,0,0,1-.62,2,3.73,3.73,0,0,1-1.83,1.24m-2.5-5.52c-.7,0-1.24,0-1.61,0v4.43h1.17a11.21,11.21,0,0,0,1.53-.08,3.25,3.25,0,0,0,1.14-.33,1.69,1.69,0,0,0,.73-.67,2.63,2.63,0,0,0,0-2.24,2,2,0,0,0-.69-.7,3.11,3.11,0,0,0-1-.36,7.44,7.44,0,0,0-1.25-.1" style="fill:#fff"/><path id="Path_15" data-name="Path 15" d="M27.81,40.83a7.09,7.09,0,0,1,.45-2.66,5.42,5.42,0,0,1,1.22-1.93,5.07,5.07,0,0,1,1.8-1.16,6.05,6.05,0,0,1,2.18-.4,5.82,5.82,0,0,1,2.15.4,4.86,4.86,0,0,1,1.77,1.16,5.51,5.51,0,0,1,1.22,1.93,8.12,8.12,0,0,1,0,5.33,5.47,5.47,0,0,1-1.22,1.92,5,5,0,0,1-1.77,1.17,6,6,0,0,1-2.15.39,6.27,6.27,0,0,1-2.18-.39,5.09,5.09,0,0,1-1.8-1.17,5.47,5.47,0,0,1-1.22-1.92,7.18,7.18,0,0,1-.45-2.67m1.73,0a6.47,6.47,0,0,0,.27,2,4.22,4.22,0,0,0,.78,1.48,3.31,3.31,0,0,0,1.22.94,3.76,3.76,0,0,0,1.62.33A3.69,3.69,0,0,0,35,45.2a3.51,3.51,0,0,0,1.22-.94A4.36,4.36,0,0,0,37,42.78a7.14,7.14,0,0,0,0-3.89,4.41,4.41,0,0,0-.77-1.49A3.51,3.51,0,0,0,35,36.46a3.69,3.69,0,0,0-1.61-.33,3.76,3.76,0,0,0-1.62.33,3.42,3.42,0,0,0-1.22.94,4.26,4.26,0,0,0-.78,1.49,6.36,6.36,0,0,0-.27,1.94" style="fill:#fff"/><path id="Path_16" data-name="Path 16" d="M52.41,40.93h1.65v5.5a4.1,4.1,0,0,1-.59.15c-.26.06-.55.12-.88.17s-.7.11-1.1.15a11.9,11.9,0,0,1-1.2.06A6,6,0,0,1,48,46.55a4.78,4.78,0,0,1-1.75-1.19,5.33,5.33,0,0,1-1.13-1.92,7.7,7.7,0,0,1-.4-2.61,7.05,7.05,0,0,1,.45-2.62,5.63,5.63,0,0,1,1.21-1.93,5.25,5.25,0,0,1,1.79-1.19,6.17,6.17,0,0,1,2.2-.41,9.59,9.59,0,0,1,1.42.1,9.07,9.07,0,0,1,1.06.24,4.93,4.93,0,0,1,.73.27l.38.2-.53,1.38a4.32,4.32,0,0,0-1.31-.54,6.63,6.63,0,0,0-1.66-.21,4,4,0,0,0-1.64.32,3.39,3.39,0,0,0-1.25.94,4.2,4.2,0,0,0-.81,1.48,6.25,6.25,0,0,0-.29,2,6.89,6.89,0,0,0,.25,1.92,4.17,4.17,0,0,0,.74,1.49,3.38,3.38,0,0,0,1.24,1,4,4,0,0,0,1.74.34,8.24,8.24,0,0,0,1.22-.07,4.61,4.61,0,0,0,.72-.15Z" style="fill:#fff"/><path id="Path_17" data-name="Path 17" d="M66.12,41.8c.19.22.42.52.69.89s.57.77.86,1.22.59.92.87,1.4a13.55,13.55,0,0,1,.74,1.41h-1.8c-.22-.43-.47-.87-.73-1.31s-.54-.86-.81-1.26-.54-.78-.81-1.13-.5-.66-.72-.92l-.45,0H62v4.6H60.37V35.12a9.06,9.06,0,0,1,1.55-.23c.57,0,1.09-.06,1.57-.06a6.46,6.46,0,0,1,3.78.93,3.26,3.26,0,0,1,1.3,2.79,3.32,3.32,0,0,1-.62,2,3.73,3.73,0,0,1-1.83,1.24m-2.5-5.52c-.7,0-1.24,0-1.61,0v4.43h1.17a11.21,11.21,0,0,0,1.53-.08,3.25,3.25,0,0,0,1.14-.33,1.66,1.66,0,0,0,.72-.67,2.15,2.15,0,0,0,.26-1.14,2.23,2.23,0,0,0-.26-1.1,1.9,1.9,0,0,0-.68-.7,3.11,3.11,0,0,0-1-.36,7.44,7.44,0,0,0-1.25-.1" style="fill:#fff"/><path id="Path_18" data-name="Path 18" d="M74.79,46.72V35H82v1.4H76.43v3.5h4.92v1.38H76.43v4.07h6v1.41Z" style="fill:#fff"/><path id="Path_19" data-name="Path 19" d="M90.94,45.55q2.58,0,2.58-1.77a1.74,1.74,0,0,0-.22-.92,2.17,2.17,0,0,0-.62-.66,4.36,4.36,0,0,0-.9-.49c-.33-.13-.68-.27-1.06-.4s-.82-.31-1.22-.5a4.49,4.49,0,0,1-1-.67,2.83,2.83,0,0,1-.67-.9A3.14,3.14,0,0,1,87.58,38a3,3,0,0,1,1.06-2.41,4.42,4.42,0,0,1,2.9-.86,7.91,7.91,0,0,1,1.94.22,4.55,4.55,0,0,1,1.28.5l-.52,1.35a4.66,4.66,0,0,0-1.06-.44,5.73,5.73,0,0,0-1.64-.21,3.8,3.8,0,0,0-.89.1,2.14,2.14,0,0,0-.71.31,1.5,1.5,0,0,0-.48.52,1.34,1.34,0,0,0-.18.73,1.48,1.48,0,0,0,.19.8,1.78,1.78,0,0,0,.52.57,4.13,4.13,0,0,0,.79.45c.3.14.63.27,1,.41.51.21,1,.41,1.4.61a4.58,4.58,0,0,1,1.1.73,3,3,0,0,1,.73,1,3.61,3.61,0,0,1,.25,1.42,2.79,2.79,0,0,1-1.13,2.38,5.25,5.25,0,0,1-3.18.83,9.07,9.07,0,0,1-1.28-.09,9.35,9.35,0,0,1-1-.23,5.66,5.66,0,0,1-.79-.27c-.22-.09-.39-.18-.52-.24l.5-1.36a7.26,7.26,0,0,0,1.19.49,5.86,5.86,0,0,0,2,.27" style="fill:#fff"/><path id="Path_20" data-name="Path 20" d="M103.71,45.55q2.58,0,2.58-1.77a1.75,1.75,0,0,0-.23-.92,2.17,2.17,0,0,0-.62-.66,4,4,0,0,0-.89-.49l-1.06-.4a13,13,0,0,1-1.22-.5,4.49,4.49,0,0,1-1-.67,2.83,2.83,0,0,1-.67-.9,3,3,0,0,1-.25-1.28,3,3,0,0,1,1.05-2.41,4.45,4.45,0,0,1,2.9-.86,8,8,0,0,1,2,.22,4.55,4.55,0,0,1,1.28.5L107,36.76a4.48,4.48,0,0,0-1.06-.44,5.64,5.64,0,0,0-1.64-.21,3.77,3.77,0,0,0-.88.1,2.14,2.14,0,0,0-.71.31,1.53,1.53,0,0,0-.49.52,1.43,1.43,0,0,0-.17.73,1.57,1.57,0,0,0,.18.8,1.93,1.93,0,0,0,.53.57,4.13,4.13,0,0,0,.79.45c.3.14.63.27,1,.41s1,.41,1.4.61a4.78,4.78,0,0,1,1.1.73,2.88,2.88,0,0,1,.72,1,3.62,3.62,0,0,1,.26,1.42,2.82,2.82,0,0,1-1.13,2.38,5.27,5.27,0,0,1-3.18.83,9.32,9.32,0,0,1-1.29-.09,9.18,9.18,0,0,1-1-.23,5.66,5.66,0,0,1-.79-.27c-.22-.09-.39-.18-.52-.24l.49-1.36a7.64,7.64,0,0,0,1.19.49,5.86,5.86,0,0,0,2,.27" style="fill:#fff"/><path id="Path_21" data-name="Path 21" d="M113.27,40.83a7.3,7.3,0,0,1,.45-2.66,5.42,5.42,0,0,1,1.22-1.93,5.07,5.07,0,0,1,1.8-1.16,6.05,6.05,0,0,1,2.18-.4,5.82,5.82,0,0,1,2.15.4,4.86,4.86,0,0,1,1.77,1.16,5.51,5.51,0,0,1,1.22,1.93,8.12,8.12,0,0,1,0,5.33,5.47,5.47,0,0,1-1.22,1.92,5,5,0,0,1-1.77,1.17,6,6,0,0,1-2.15.39,6.27,6.27,0,0,1-2.18-.39,5.09,5.09,0,0,1-1.8-1.17,5.47,5.47,0,0,1-1.22-1.92,7.39,7.39,0,0,1-.45-2.67m1.73,0a6.8,6.8,0,0,0,.27,2,4.22,4.22,0,0,0,.78,1.48,3.23,3.23,0,0,0,1.22.94,4.12,4.12,0,0,0,3.23,0,3.51,3.51,0,0,0,1.22-.94,4.36,4.36,0,0,0,.77-1.48,7.14,7.14,0,0,0,0-3.89,4.41,4.41,0,0,0-.77-1.49,3.51,3.51,0,0,0-1.22-.94,4.12,4.12,0,0,0-3.23,0,3.34,3.34,0,0,0-1.22.94,4.26,4.26,0,0,0-.78,1.49,6.69,6.69,0,0,0-.27,1.94" style="fill:#fff"/><path id="Path_22" data-name="Path 22" d="M142.29,45.55q2.58,0,2.58-1.77a1.74,1.74,0,0,0-.22-.92,2.17,2.17,0,0,0-.62-.66,4.36,4.36,0,0,0-.9-.49c-.33-.13-.68-.27-1.06-.4s-.82-.31-1.22-.5a4.49,4.49,0,0,1-1-.67,2.83,2.83,0,0,1-.67-.9,3.36,3.36,0,0,1,.81-3.69,4.42,4.42,0,0,1,2.9-.86,7.91,7.91,0,0,1,1.94.22,4.55,4.55,0,0,1,1.28.5l-.52,1.35a4.66,4.66,0,0,0-1.06-.44,5.73,5.73,0,0,0-1.64-.21,3.8,3.8,0,0,0-.89.1,2.14,2.14,0,0,0-.71.31,1.41,1.41,0,0,0-.48.52,1.34,1.34,0,0,0-.18.73,1.48,1.48,0,0,0,.19.8,1.78,1.78,0,0,0,.52.57,4.13,4.13,0,0,0,.79.45c.3.14.63.27,1,.41s1,.41,1.4.61a4.58,4.58,0,0,1,1.1.73,3,3,0,0,1,.73,1,3.61,3.61,0,0,1,.25,1.42,2.79,2.79,0,0,1-1.13,2.38,5.25,5.25,0,0,1-3.18.83,9.07,9.07,0,0,1-1.28-.09,9.86,9.86,0,0,1-1-.23,5.66,5.66,0,0,1-.79-.27c-.22-.09-.39-.18-.51-.24l.49-1.36a7.26,7.26,0,0,0,1.19.49,5.86,5.86,0,0,0,1.95.27" style="fill:#fff"/><path id="Path_23" data-name="Path 23" d="M151.85,40.83a7.51,7.51,0,0,1,.45-2.66,5.56,5.56,0,0,1,1.22-1.93,5.07,5.07,0,0,1,1.8-1.16,6.07,6.07,0,0,1,2.19-.4,5.81,5.81,0,0,1,2.14.4,4.9,4.9,0,0,1,1.78,1.16,5.63,5.63,0,0,1,1.21,1.93,8.12,8.12,0,0,1,0,5.33,5.59,5.59,0,0,1-1.21,1.92,5.06,5.06,0,0,1-1.78,1.17,6,6,0,0,1-2.14.39,6.28,6.28,0,0,1-2.19-.39,5.09,5.09,0,0,1-1.8-1.17,5.61,5.61,0,0,1-1.22-1.92,7.61,7.61,0,0,1-.45-2.67m1.73,0a7.17,7.17,0,0,0,.27,2,4.39,4.39,0,0,0,.78,1.48,3.4,3.4,0,0,0,1.22.94,3.76,3.76,0,0,0,1.62.33,3.69,3.69,0,0,0,1.61-.33,3.51,3.51,0,0,0,1.22-.94,4.36,4.36,0,0,0,.77-1.48,7.14,7.14,0,0,0,0-3.89,4.41,4.41,0,0,0-.77-1.49,3.51,3.51,0,0,0-1.22-.94,3.69,3.69,0,0,0-1.61-.33,3.76,3.76,0,0,0-1.62.33,3.51,3.51,0,0,0-1.22.94,4.43,4.43,0,0,0-.78,1.49,7,7,0,0,0-.27,1.94" style="fill:#fff"/><path id="Path_24" data-name="Path 24" d="M171.83,45.55q2.59,0,2.58-1.77a1.74,1.74,0,0,0-.22-.92,2.17,2.17,0,0,0-.62-.66,4.36,4.36,0,0,0-.9-.49c-.33-.13-.68-.27-1.06-.4s-.82-.31-1.22-.5a4.49,4.49,0,0,1-1-.67,2.83,2.83,0,0,1-.67-.9,3.36,3.36,0,0,1,.81-3.69,4.42,4.42,0,0,1,2.9-.86,7.91,7.91,0,0,1,1.94.22,4.55,4.55,0,0,1,1.28.5l-.52,1.35a4.66,4.66,0,0,0-1.06-.44,5.73,5.73,0,0,0-1.64-.21,3.8,3.8,0,0,0-.89.1,2.14,2.14,0,0,0-.71.31,1.41,1.41,0,0,0-.48.52,1.34,1.34,0,0,0-.18.73,1.48,1.48,0,0,0,.19.8,1.78,1.78,0,0,0,.52.57,4.13,4.13,0,0,0,.79.45c.3.14.63.27,1,.41.51.21,1,.41,1.4.61a4.58,4.58,0,0,1,1.1.73,3,3,0,0,1,.73,1,3.61,3.61,0,0,1,.25,1.42A2.79,2.79,0,0,1,175,46.15a5.25,5.25,0,0,1-3.18.83,9.07,9.07,0,0,1-1.28-.09,9.86,9.86,0,0,1-1.05-.23,5.66,5.66,0,0,1-.79-.27c-.22-.09-.39-.18-.51-.24l.49-1.36a7.26,7.26,0,0,0,1.19.49,5.86,5.86,0,0,0,2,.27" style="fill:#fff"/><path id="Path_25" data-name="Path 25" d="M189.73,35v1.42H186V46.72h-1.65V36.38h-3.7V35Z" style="fill:#fff"/><path id="Path_26" data-name="Path 26" d="M195.19,46.72V35h7.19v1.4h-5.54v3.5h4.92v1.38h-4.92v4.07h6v1.41Z" style="fill:#fff"/><path id="Path_27" data-name="Path 27" d="M216.69,46.72c-.25-.42-.54-.89-.86-1.41s-.67-1.06-1-1.62-.77-1.13-1.17-1.7-.8-1.14-1.2-1.68-.78-1-1.15-1.52-.72-.89-1-1.25v9.18h-1.61V35h1.31c.53.56,1.1,1.22,1.7,2s1.21,1.53,1.8,2.33,1.16,1.58,1.69,2.35,1,1.45,1.33,2.06V35h1.61V46.72Z" style="fill:#fff"/><rect id="Rectangle_35" data-name="Rectangle 35" x="224.72" y="34.95" width="1.65" height="11.77" style="fill:#fff"/><path id="Path_28" data-name="Path 28" d="M236.19,46.82l-.77,0-.83,0-.82-.08a6.2,6.2,0,0,1-.75-.14V35.13a6.2,6.2,0,0,1,.75-.14l.82-.09.82,0h.77a11.1,11.1,0,0,1,1.91.15,4.68,4.68,0,0,1,1.54.52,2.87,2.87,0,0,1,1,1,2.65,2.65,0,0,1,.37,1.46,2.49,2.49,0,0,1-.46,1.58,2.74,2.74,0,0,1-1.22.93,3.56,3.56,0,0,1,1.65,1,2.68,2.68,0,0,1,.61,1.86,3,3,0,0,1-1.3,2.66,7.39,7.39,0,0,1-4.12.89m-1.54-6.91h1.73a7.54,7.54,0,0,0,1.16-.08,2.89,2.89,0,0,0,.94-.31,1.57,1.57,0,0,0,.86-1.48,1.5,1.5,0,0,0-.24-.85,1.71,1.71,0,0,0-.66-.56,3.57,3.57,0,0,0-1-.32,6.75,6.75,0,0,0-1.19-.1l-1,0-.65.05Zm0,1.33v4.14l.44,0,.52,0h.69a9.15,9.15,0,0,0,1.38-.1,3.74,3.74,0,0,0,1.14-.33,2,2,0,0,0,.79-.66,1.78,1.78,0,0,0,.3-1.07,2,2,0,0,0-.22-1,1.66,1.66,0,0,0-.63-.63,3,3,0,0,0-1-.34,6.88,6.88,0,0,0-1.29-.1Z" style="fill:#fff"/><rect id="Rectangle_36" data-name="Rectangle 36" x="247.67" y="34.95" width="1.65" height="11.77" style="fill:#fff"/><path id="Path_29" data-name="Path 29" d="M263.05,45.3v1.42H256V35h1.65V45.3Z" style="fill:#fff"/><path id="Path_30" data-name="Path 30" d="M268.52,46.72V35h7.18v1.4h-5.53v3.5h4.92v1.38h-4.92v4.07h6v1.41Z" style="fill:#fff"/><path id="Path_31" data-name="Path 31" d="M16.51,27.57a30.84,30.84,0,0,1-3.56.75,29.33,29.33,0,0,1-4.58.34A11,11,0,0,1,4.31,28a6.1,6.1,0,0,1-2.56-1.84A7.23,7.23,0,0,1,.4,23.35a15.06,15.06,0,0,1-.4-3.6V9.1H5.42v10a7.84,7.84,0,0,0,.69,3.78A2.75,2.75,0,0,0,8.69,24c.39,0,.8,0,1.24-.05s.82-.08,1.16-.13V9.1h5.42Z" style="fill:#fff"/><path id="Path_32" data-name="Path 32" d="M39.5,18.62a12.58,12.58,0,0,1-.66,4.13A8.87,8.87,0,0,1,37,26,8.59,8.59,0,0,1,34,28a9.9,9.9,0,0,1-3.88.72A9.84,9.84,0,0,1,26.28,28a8.53,8.53,0,0,1-3-2.06,9.24,9.24,0,0,1-1.92-3.2,11.83,11.83,0,0,1-.7-4.13,11.77,11.77,0,0,1,.71-4.11,9.45,9.45,0,0,1,2-3.16,8.82,8.82,0,0,1,3-2,10.15,10.15,0,0,1,7.56,0,8.64,8.64,0,0,1,3,2,9.39,9.39,0,0,1,1.93,3.17,12,12,0,0,1,.69,4.11m-5.53,0a6.77,6.77,0,0,0-1-3.95,3.29,3.29,0,0,0-2.86-1.44,3.34,3.34,0,0,0-2.87,1.44,6.79,6.79,0,0,0-1,3.95,6.88,6.88,0,0,0,1,4,3.53,3.53,0,0,0,5.73,0,7.06,7.06,0,0,0,1-4" style="fill:#fff"/><path id="Path_33" data-name="Path 33" d="M54.19,18.08a7.4,7.4,0,0,0-.67-3.71,2.49,2.49,0,0,0-2.31-1.09c-.34,0-.69,0-1.06.05l-1,.13V28.22H43.68V9.75c.46-.12,1-.25,1.62-.38s1.27-.26,2-.37,1.4-.19,2.13-.25,1.44-.09,2.15-.09a9,9,0,0,1,3.36.53A7.5,7.5,0,0,1,57,10.44a10.05,10.05,0,0,1,5.45-1.78,9.34,9.34,0,0,1,3.77.64,5.6,5.6,0,0,1,2.34,1.8,6.83,6.83,0,0,1,1.2,2.76,17.74,17.74,0,0,1,.33,3.56v10.8H64.7V18.08A7.4,7.4,0,0,0,64,14.37a2.49,2.49,0,0,0-2.31-1.09,5,5,0,0,0-1.22.21,4.92,4.92,0,0,0-1.29.55,8.94,8.94,0,0,1,.33,1.76c0,.62.07,1.28.07,2V28.22H54.19Z" style="fill:#fff"/><path id="Path_34" data-name="Path 34" d="M92.93,18.62a12.58,12.58,0,0,1-.66,4.13A8.87,8.87,0,0,1,90.38,26a8.59,8.59,0,0,1-3,2.06,10.68,10.68,0,0,1-7.71,0,8.53,8.53,0,0,1-3-2.06,9.33,9.33,0,0,1-1.92-3.2,11.83,11.83,0,0,1-.7-4.13,11.77,11.77,0,0,1,.71-4.11,9.42,9.42,0,0,1,2-3.16,8.86,8.86,0,0,1,3-2,10.15,10.15,0,0,1,7.56,0,8.51,8.51,0,0,1,3,2,9.23,9.23,0,0,1,1.93,3.17,11.49,11.49,0,0,1,.69,4.11m-5.52,0a6.92,6.92,0,0,0-1-3.95,3.29,3.29,0,0,0-2.86-1.44,3.33,3.33,0,0,0-2.87,1.44,6.71,6.71,0,0,0-1,3.95,6.88,6.88,0,0,0,1,4,3.53,3.53,0,0,0,5.73,0,7.06,7.06,0,0,0,1-4" style="fill:#fff"/><path id="Path_35" data-name="Path 35" d="M96.56,18.81a11.93,11.93,0,0,1,.71-4.31,9.51,9.51,0,0,1,1.86-3.08,7.33,7.33,0,0,1,2.62-1.84,8.06,8.06,0,0,1,3-.6,7.11,7.11,0,0,1,5.51,2.26q2.05,2.25,2.06,7c0,.19,0,.38,0,.58s0,.38,0,.54H99.08a8.36,8.36,0,0,0,1.7,5.32q1.6,1.85,5.1,1.85a10.45,10.45,0,0,0,3.05-.36,13.48,13.48,0,0,0,1.64-.62l.43,2a10.8,10.8,0,0,1-1.9.69,12.69,12.69,0,0,1-3.3.4,11.07,11.07,0,0,1-4.22-.73,7.48,7.48,0,0,1-2.87-2,8,8,0,0,1-1.64-3.11,14.54,14.54,0,0,1-.51-3.94m13.35-1.5a7.46,7.46,0,0,0-1.38-4.58,4.49,4.49,0,0,0-3.71-1.63,4.92,4.92,0,0,0-2.27.5A5.85,5.85,0,0,0,100.8,13a6.18,6.18,0,0,0-1.16,2,8.35,8.35,0,0,0-.5,2.37Z" style="fill:#fff"/><path id="Path_36" data-name="Path 36" d="M123.91,8.59a12.28,12.28,0,0,1,4,.54,6.36,6.36,0,0,1,2.57,1.56,5.76,5.76,0,0,1,1.36,2.48,12.12,12.12,0,0,1,.4,3.23V27.68q-1.16.26-3.24.6a31.1,31.1,0,0,1-5,.35,15.92,15.92,0,0,1-3.37-.33,7.42,7.42,0,0,1-2.6-1.07,4.85,4.85,0,0,1-1.67-1.95,6.61,6.61,0,0,1-.58-2.94,5.62,5.62,0,0,1,.67-2.84,5.17,5.17,0,0,1,1.8-1.86,8.29,8.29,0,0,1,2.58-1,14.67,14.67,0,0,1,3-.31,16.61,16.61,0,0,1,1.87.1,8.4,8.4,0,0,1,1.33.23v-.51a3,3,0,0,0-.83-2.22,4.07,4.07,0,0,0-2.91-.83,17.73,17.73,0,0,0-2.73.2,11.48,11.48,0,0,0-2.33.56l-.69-4.36c.31-.1.71-.2,1.18-.31s1-.21,1.55-.29,1.14-.16,1.76-.22,1.24-.09,1.87-.09m.44,15.86,1.53,0A11.11,11.11,0,0,0,127,24.3V20.19a9.58,9.58,0,0,0-1-.15c-.4,0-.8-.07-1.2-.07a11.6,11.6,0,0,0-1.44.09,3.74,3.74,0,0,0-1.18.35,2,2,0,0,0-.8.69,2,2,0,0,0-.29,1.09A1.89,1.89,0,0,0,122,24a4.79,4.79,0,0,0,2.35.49" style="fill:#fff"/><path id="Path_37" data-name="Path 37" d="M147.66,18.08a7.4,7.4,0,0,0-.67-3.71,2.49,2.49,0,0,0-2.31-1.09c-.34,0-.69,0-1.05.05l-1.06.13V28.22h-5.42V9.75c.46-.12,1-.25,1.62-.38s1.27-.26,2-.37,1.41-.19,2.13-.25,1.45-.09,2.15-.09a9,9,0,0,1,3.36.53,7.37,7.37,0,0,1,2.13,1.25A10.06,10.06,0,0,1,156,8.66a9.32,9.32,0,0,1,3.76.64,5.63,5.63,0,0,1,2.35,1.8,6.83,6.83,0,0,1,1.2,2.76,18.49,18.49,0,0,1,.32,3.56v10.8h-5.42V18.08a7.4,7.4,0,0,0-.67-3.71,2.49,2.49,0,0,0-2.31-1.09,5.69,5.69,0,0,0-2.51.76A8.94,8.94,0,0,1,153,15.8c.05.62.07,1.28.07,2V28.22h-5.42Z" style="fill:#fff"/><path id="Path_38" data-name="Path 38" d="M186.29,18.66a12.24,12.24,0,0,1-.67,4.15,8.77,8.77,0,0,1-2,3.16,8.66,8.66,0,0,1-3.13,2,11.88,11.88,0,0,1-4.22.71c-.65,0-1.34,0-2-.09s-1.42-.14-2.11-.24-1.35-.21-2-.35-1.19-.27-1.68-.41V.87L173.92,0V9.53a10.45,10.45,0,0,1,1.89-.62,10,10,0,0,1,2.11-.22,8.7,8.7,0,0,1,3.6.71,7.11,7.11,0,0,1,2.62,2,9,9,0,0,1,1.6,3.15,14.51,14.51,0,0,1,.55,4.09m-5.53-.15q0-5.24-3.86-5.23a6.19,6.19,0,0,0-1.65.22,4.54,4.54,0,0,0-1.33.54V23.9c.27.05.61.09,1,.13s.86,0,1.35,0a3.89,3.89,0,0,0,3.34-1.53,6.64,6.64,0,0,0,1.13-4" style="fill:#fff"/><path id="Path_39" data-name="Path 39" d="M196.4,3.57a3,3,0,0,1-1,2.34,3.45,3.45,0,0,1-4.55,0,3,3,0,0,1-1-2.34,3,3,0,0,1,1-2.35,3.45,3.45,0,0,1,4.55,0,3,3,0,0,1,1,2.35m-.51,24.66h-5.41V9.09h5.41Z" style="fill:#fff"/><path id="Path_40" data-name="Path 40" d="M200.07,18.8a11.87,11.87,0,0,1,.78-4.45,9.58,9.58,0,0,1,2.06-3.18,8.45,8.45,0,0,1,2.93-1.93,9.39,9.39,0,0,1,3.4-.66,8.45,8.45,0,0,1,6.43,2.5Q218,13.57,218,18.4c0,.32,0,.67,0,1s-.05.71-.07,1H205.64a3.59,3.59,0,0,0,1.56,2.66,6.3,6.3,0,0,0,3.71,1,15.23,15.23,0,0,0,2.93-.28,10.61,10.61,0,0,0,2.34-.67l.73,4.4a6.76,6.76,0,0,1-1.16.44,15.81,15.81,0,0,1-1.62.38c-.6.11-1.23.2-1.91.27a17.43,17.43,0,0,1-2,.11,11.86,11.86,0,0,1-4.49-.76,8.77,8.77,0,0,1-3.17-2.09,8.36,8.36,0,0,1-1.85-3.15,12.45,12.45,0,0,1-.6-3.93m12.73-2.07a5.46,5.46,0,0,0-.24-1.34,3.47,3.47,0,0,0-.62-1.17,3.25,3.25,0,0,0-1.05-.83,3.36,3.36,0,0,0-1.58-.33,3.67,3.67,0,0,0-1.57.31,3.14,3.14,0,0,0-1.09.82,3.72,3.72,0,0,0-.67,1.18,8,8,0,0,0-.35,1.36Z" style="fill:#fff"/><path id="Path_41" data-name="Path 41" d="M222.22,9.75A30.57,30.57,0,0,1,225.79,9a29.15,29.15,0,0,1,4.58-.34,11.15,11.15,0,0,1,4,.63,6.2,6.2,0,0,1,2.57,1.8,7.14,7.14,0,0,1,1.34,2.77,14.25,14.25,0,0,1,.4,3.56v10.8h-5.42V18.08a7.29,7.29,0,0,0-.69-3.71A2.8,2.8,0,0,0,230,13.28c-.39,0-.8,0-1.24.05s-.82.08-1.16.13V28.23h-5.42Z" style="fill:#fff"/><path id="Path_42" data-name="Path 42" d="M243.46,4.33l5.42-.87V9.09h6.51V13.6h-6.51v6.73a5.38,5.38,0,0,0,.6,2.73,2.57,2.57,0,0,0,2.42,1,10.85,10.85,0,0,0,1.8-.16,9,9,0,0,0,1.69-.46l.76,4.22a14.93,14.93,0,0,1-2.18.69,12.65,12.65,0,0,1-2.94.29,9.61,9.61,0,0,1-3.68-.6A5.76,5.76,0,0,1,245,26.39a6.05,6.05,0,0,1-1.22-2.6,15.4,15.4,0,0,1-.35-3.38Z" style="fill:#fff"/><path id="Path_43" data-name="Path 43" d="M258.15,18.8a11.68,11.68,0,0,1,.79-4.45A9.4,9.4,0,0,1,261,11.17a8.45,8.45,0,0,1,2.93-1.93,9.39,9.39,0,0,1,3.4-.66,8.49,8.49,0,0,1,6.44,2.5q2.36,2.49,2.36,7.32c0,.32,0,.67,0,1s-.05.71-.07,1H263.72a3.62,3.62,0,0,0,1.56,2.66,6.32,6.32,0,0,0,3.71,1,15.08,15.08,0,0,0,2.93-.28,10.85,10.85,0,0,0,2.35-.67l.72,4.4a6.76,6.76,0,0,1-1.16.44,14.67,14.67,0,0,1-1.62.38c-.59.11-1.23.2-1.91.27a17.15,17.15,0,0,1-2,.11,11.91,11.91,0,0,1-4.5-.76,8.82,8.82,0,0,1-3.16-2.09,8.23,8.23,0,0,1-1.85-3.15,12.17,12.17,0,0,1-.6-3.93m12.73-2.07a6,6,0,0,0-.24-1.34,3.47,3.47,0,0,0-.62-1.17,3.25,3.25,0,0,0-1-.83,3.37,3.37,0,0,0-1.59-.33,3.51,3.51,0,0,0-1.56.31,3.14,3.14,0,0,0-1.09.82,3.38,3.38,0,0,0-.67,1.18,7.15,7.15,0,0,0-.35,1.36Z" style="fill:#fff"/></g></g></svg>