<svg xmlns="http://www.w3.org/2000/svg" viewBox="0 0 163.17 65.22"><title>treedom-srl-logo-vector</title><g id="Livello_2" data-name="Livello 2"><g id="Livello_1-2" data-name="Livello 1"><g id="treedom-srl-logo-vector"><g id="Group_127" data-name="Group 127"><g id="Group_122" data-name="Group 122"><g id="Group_85" data-name="Group 85"><g id="Group_84" data-name="Group 84"><path id="Path_45" data-name="Path 45" d="M56.53,62.31h-.81a.91.91,0,0,1-.41-.19.46.46,0,0,1-.19-.41v-7a1,1,0,0,1,.19-.41.46.46,0,0,1,.41-.19,1,1,0,0,1,.41.19.46.46,0,0,1,.19.41v6.53h.19a.91.91,0,0,1,.41.19.51.51,0,0,1,.19.4.61.61,0,0,1-.19.41A.59.59,0,0,1,56.53,62.31Z" style="fill:#fff"/></g></g><g id="Group_87" data-name="Group 87"><g id="Group_86" data-name="Group 86"><path id="Path_46" data-name="Path 46" d="M60.67,62.31a2.74,2.74,0,0,1-2-.81,2.57,2.57,0,0,1-.82-2,2.76,2.76,0,0,1,.82-2,2.56,2.56,0,0,1,2-.81,2.75,2.75,0,0,1,2,.81,2.86,2.86,0,0,1,.82,2,1,1,0,0,1-.19.41.48.48,0,0,1-.41.19H58.79a2,2,0,0,0,.49.82,1.64,1.64,0,0,0,1.31.49,1.77,1.77,0,0,0,1.2-.41.6.6,0,0,1,.7,0,.48.48,0,0,1,.19.41.56.56,0,0,1-.11.41A4.21,4.21,0,0,1,60.67,62.31ZM59,58.89h3.51a1.92,1.92,0,0,0-.49-.82,1.63,1.63,0,0,0-1.3-.49,2.16,2.16,0,0,0-1.31.49C59.14,58.4,59,58.59,59,58.89Z" style="fill:#fff"/></g></g><g id="Group_89" data-name="Group 89"><g id="Group_88" data-name="Group 88"><path id="Path_47" data-name="Path 47" d="M66.68,62.31a1.84,1.84,0,0,1-2.09-1.56,1.57,1.57,0,0,1,0-.53V57.61h-.3a1,1,0,0,1-.41-.19.48.48,0,0,1-.19-.41.91.91,0,0,1,.19-.41.53.53,0,0,1,.41-.19h.3V54.62a.81.81,0,0,1,.19-.41.45.45,0,0,1,.4-.19.91.91,0,0,1,.41.19.44.44,0,0,1,.19.41v1.79h.6a1,1,0,0,1,.41.19A.48.48,0,0,1,67,57a.91.91,0,0,1-.19.41.46.46,0,0,1-.41.19h-.6v2.61c0,.7.3,1,1,1a1,1,0,0,1,.41.19.48.48,0,0,1,.19.41c0,.19-.19.3-.3.41A.66.66,0,0,1,66.68,62.31Z" style="fill:#fff"/></g></g><g id="Group_91" data-name="Group 91"><g id="Group_90" data-name="Group 90"><path id="Path_48" data-name="Path 48" d="M69.18,57.69a.38.38,0,0,1-.41-.34v-.26a2.36,2.36,0,0,0,0-2c0-.11-.11-.19-.11-.3a.63.63,0,0,1,.19-.41.65.65,0,0,1,.41-.19c.3,0,.41.11.6.41a2.77,2.77,0,0,1,.3,1.2,2.81,2.81,0,0,1-.82,1.79C69.37,57.69,69.29,57.69,69.18,57.69Z" style="fill:#fff"/></g></g><g id="Group_93" data-name="Group 93"><g id="Group_92" data-name="Group 92"><path id="Path_49" data-name="Path 49" d="M72.8,62.31a2.67,2.67,0,0,1-2.2-1,.3.3,0,0,1-.11-.3.92.92,0,0,1,.19-.4.46.46,0,0,1,.41-.19.52.52,0,0,1,.4.11l.11.1a1.83,1.83,0,0,0,2.5,0c.11-.1.11-.1.11-.19s0-.1-.11-.19l-2.42-.81A1.71,1.71,0,0,1,71,59a1.21,1.21,0,0,1-.41-.9,1,1,0,0,1,.41-.9,2.66,2.66,0,0,1,1.9-.82,2.72,2.72,0,0,1,2.2,1,.34.34,0,0,1,.1.3.81.81,0,0,1-.19.41.48.48,0,0,1-.4.19.6.6,0,0,1-.41-.11l-.11-.11h0a1.85,1.85,0,0,0-2.5,0c-.11.11-.11.11-.11.19s.11.11.11.19l2.42.82a1.68,1.68,0,0,1,.71.4,1.09,1.09,0,0,1,.4.9.93.93,0,0,1-.4.9A2.32,2.32,0,0,1,72.8,62.31Z" style="fill:#fff"/></g></g><g id="Group_95" data-name="Group 95"><g id="Group_94" data-name="Group 94"><path id="Path_50" data-name="Path 50" d="M81.83,64.6a3.06,3.06,0,0,1-2.2-.9,2.2,2.2,0,0,1-.49-.71c0-.1-.11-.19-.11-.3a.92.92,0,0,1,.19-.4.5.5,0,0,1,.7,0c0,.11.11.11.11.19s.19.3.3.49a2,2,0,0,0,1.42.6,2,2,0,0,0,1.41-.6,1.74,1.74,0,0,0,.3-.82v-.49a2.94,2.94,0,0,1-3.81-.22,2.58,2.58,0,0,1-.81-2,2.75,2.75,0,0,1,.81-2,2.61,2.61,0,0,1,2-.82,2.76,2.76,0,0,1,2,.82,2.58,2.58,0,0,1,.81,2v2.72a2,2,0,0,1-.7,1.6A2.23,2.23,0,0,1,81.83,64.6Zm0-7a2.1,2.1,0,0,0-1.31.49,1.52,1.52,0,0,0-.49,1.3,2.22,2.22,0,0,0,.49,1.31,1.71,1.71,0,0,0,1.31.49,2.22,2.22,0,0,0,1.3-.49,1.51,1.51,0,0,0,.49-1.31,2.11,2.11,0,0,0-.49-1.3,2.3,2.3,0,0,0-1.3-.5Z" style="fill:#fff"/></g></g><g id="Group_97" data-name="Group 97"><g id="Group_96" data-name="Group 96"><path id="Path_51" data-name="Path 51" d="M85.93,62.31a.83.83,0,0,1-.4-.19.42.42,0,0,1-.19-.41V57a.82.82,0,0,1,.19-.4.5.5,0,0,1,.7,0,.46.46,0,0,1,.19.4v.19a2.85,2.85,0,0,1,1.8-.6,4.61,4.61,0,0,1,1.11.19c.11,0,.11.11.19.11a.48.48,0,0,1,.19.41.55.55,0,0,1-.19.41.48.48,0,0,1-.41.19c-.1,0-.19,0-.19-.11a1.4,1.4,0,0,0-.7-.11,2.22,2.22,0,0,0-1.31.49,1.67,1.67,0,0,0-.49,1.31V61.8a.91.91,0,0,1-.19.41A.33.33,0,0,1,85.93,62.31Z" style="fill:#fff"/></g></g><g id="Group_99" data-name="Group 99"><g id="Group_98" data-name="Group 98"><path id="Path_52" data-name="Path 52" d="M93.14,62.31a2.74,2.74,0,0,1-2-.81,2.57,2.57,0,0,1-.82-2,2.76,2.76,0,0,1,.82-2,2.58,2.58,0,0,1,2-.81,2.75,2.75,0,0,1,2,.81,2.63,2.63,0,0,1,.82,2,1,1,0,0,1-.19.41.48.48,0,0,1-.41.19H91.26a2.14,2.14,0,0,0,.49.82,1.64,1.64,0,0,0,1.31.49,1.88,1.88,0,0,0,1.2-.41.6.6,0,0,1,.7,0,.48.48,0,0,1,.19.41.56.56,0,0,1-.11.41A4.06,4.06,0,0,1,93.14,62.31Zm-1.8-3.42h3.51a2,2,0,0,0-.49-.82,1.63,1.63,0,0,0-1.3-.49,1.48,1.48,0,0,0-1.2.6A1.85,1.85,0,0,0,91.34,58.89Z" style="fill:#fff"/></g></g><g id="Group_101" data-name="Group 101"><g id="Group_100" data-name="Group 100"><path id="Path_53" data-name="Path 53" d="M99.56,62.31a2.78,2.78,0,0,1-2-.81,2.6,2.6,0,0,1-.81-2,2.75,2.75,0,0,1,.81-2,2.6,2.6,0,0,1,2-.81,2.75,2.75,0,0,1,2,.81,2.81,2.81,0,0,1,.81,2,.81.81,0,0,1-.19.41.46.46,0,0,1-.4.19H97.68a2,2,0,0,0,.49.82,1.63,1.63,0,0,0,1.3.49,1.74,1.74,0,0,0,1.2-.41.62.62,0,0,1,.71,0,.48.48,0,0,1,.19.41.56.56,0,0,1-.11.41A4.09,4.09,0,0,1,99.56,62.31Zm-1.69-3.42h3.51a2.14,2.14,0,0,0-.49-.82,1.64,1.64,0,0,0-1.31-.49,2.16,2.16,0,0,0-1.3.49A2.53,2.53,0,0,0,97.87,58.89Z" style="fill:#fff"/></g></g><g id="Group_103" data-name="Group 103"><g id="Group_102" data-name="Group 102"><path id="Path_54" data-name="Path 54" d="M108,62.31a.91.91,0,0,1-.41-.19.52.52,0,0,1-.19-.41v-2.5a1.6,1.6,0,0,0-3.2,0v2.5a1,1,0,0,1-.19.41.51.51,0,0,1-.71,0,.46.46,0,0,1-.19-.41V57a.92.92,0,0,1,.19-.4.55.55,0,0,1,.9.4h0a2.35,2.35,0,0,1,1.6-.49,2.69,2.69,0,0,1,1.9.82,2.83,2.83,0,0,1,.81,1.9v2.5a.91.91,0,0,1-.19.41A.32.32,0,0,1,108,62.31Z" style="fill:#fff"/></g></g><g id="Group_105" data-name="Group 105"><g id="Group_104" data-name="Group 104"><path id="Path_55" data-name="Path 55" d="M115.22,62.31a1.84,1.84,0,0,1-2.09-1.56,1.57,1.57,0,0,1,0-.53V57.61h-.19a1,1,0,0,1-.41-.19.48.48,0,0,1-.19-.41.91.91,0,0,1,.19-.41.53.53,0,0,1,.41-.19h.19V54.62a.91.91,0,0,1,.19-.41.46.46,0,0,1,.41-.19.63.63,0,0,1,.4.19.48.48,0,0,1,.19.41v1.79h.6a1,1,0,0,1,.41.19.48.48,0,0,1,.19.41.91.91,0,0,1-.19.41.5.5,0,0,1-.41.19h-.6v2.61c0,.7.3,1,1,1a1,1,0,0,1,.41.19.53.53,0,0,1,.19.41,1,1,0,0,1-.19.41A1.32,1.32,0,0,1,115.22,62.31Z" style="fill:#fff"/></g></g><g id="Group_107" data-name="Group 107"><g id="Group_106" data-name="Group 106"><path id="Path_56" data-name="Path 56" d="M121.23,62.31a.91.91,0,0,1-.41-.19.46.46,0,0,1-.19-.41v-2.5a1.61,1.61,0,0,0-3.21,0v2.5a.91.91,0,0,1-.19.41.48.48,0,0,1-.41.19.65.65,0,0,1-.41-.19.52.52,0,0,1-.19-.41v-7a1,1,0,0,1,.19-.41.53.53,0,0,1,.41-.19,1,1,0,0,1,.41.19.48.48,0,0,1,.19.41V57a2.3,2.3,0,0,1,1.6-.49,2.67,2.67,0,0,1,1.9.82,2.76,2.76,0,0,1,.82,1.9v2.5a1,1,0,0,1-.19.41C121.53,62.31,121.42,62.31,121.23,62.31Z" style="fill:#fff"/></g></g><g id="Group_109" data-name="Group 109"><g id="Group_108" data-name="Group 108"><path id="Path_57" data-name="Path 57" d="M125.34,62.31a2.74,2.74,0,0,1-2-.81,2.57,2.57,0,0,1-.82-2,2.76,2.76,0,0,1,.82-2,2.58,2.58,0,0,1,2-.81,2.75,2.75,0,0,1,2,.81,2.63,2.63,0,0,1,.82,2,1,1,0,0,1-.19.41.48.48,0,0,1-.41.19h-4.11a2.14,2.14,0,0,0,.49.82,1.64,1.64,0,0,0,1.31.49,1.88,1.88,0,0,0,1.2-.41.6.6,0,0,1,.7,0,.48.48,0,0,1,.19.41c0,.11-.1.3-.1.41A3.87,3.87,0,0,1,125.34,62.31Zm-1.69-3.42h3.51a2,2,0,0,0-.49-.82,1.63,1.63,0,0,0-1.3-.49,2.16,2.16,0,0,0-1.31.49A2.74,2.74,0,0,0,123.65,58.89Z" style="fill:#fff"/></g></g><g id="Group_111" data-name="Group 111"><g id="Group_110" data-name="Group 110"><path id="Path_58" data-name="Path 58" d="M132.57,64.6a.93.93,0,0,1-.4-.19A.48.48,0,0,1,132,64V59.3a2.75,2.75,0,0,1,.81-2,2.6,2.6,0,0,1,2-.82,2.79,2.79,0,0,1,2,.82,2.58,2.58,0,0,1,.81,2,2.75,2.75,0,0,1-.81,2,2.64,2.64,0,0,1-2,.82,2.71,2.71,0,0,1-1.79-.6V64a.83.83,0,0,1-.19.4C132.87,64.6,132.76,64.6,132.57,64.6Zm2.4-7a1.85,1.85,0,0,0-1.8,1.9,1.9,1.9,0,0,0,.49,1.2,1.64,1.64,0,0,0,1.31.49,1.85,1.85,0,0,0,1.8-1.89,1.83,1.83,0,0,0-.5-1.21,2.22,2.22,0,0,0-1.3-.49Z" style="fill:#fff"/></g></g><g id="Group_113" data-name="Group 113"><g id="Group_112" data-name="Group 112"><path id="Path_59" data-name="Path 59" d="M139.78,62.31H139a.91.91,0,0,1-.41-.19.46.46,0,0,1-.19-.41v-7a.91.91,0,0,1,.19-.41.46.46,0,0,1,.41-.19,1.05,1.05,0,0,1,.4.19.48.48,0,0,1,.19.41v6.53h.19a.91.91,0,0,1,.41.19.45.45,0,0,1,.19.4.53.53,0,0,1-.19.41C140.08,62.34,140,62.31,139.78,62.31Z" style="fill:#fff"/></g></g><g id="Group_115" data-name="Group 115"><g id="Group_114" data-name="Group 114"><path id="Path_60" data-name="Path 60" d="M146.31,62.31a.91.91,0,0,1-.41-.19.48.48,0,0,1-.19-.41V61.6a2.93,2.93,0,0,1-3.81-.21,2.6,2.6,0,0,1-.81-2,2.75,2.75,0,0,1,.81-2,2.59,2.59,0,0,1,2-.81,2.78,2.78,0,0,1,2,.81,2.59,2.59,0,0,1,.81,2v2.32a.83.83,0,0,1-.19.4C146.5,62.31,146.41,62.31,146.31,62.31Zm-2.43-4.73a2.16,2.16,0,0,0-1.3.49,1.53,1.53,0,0,0-.49,1.3,2.16,2.16,0,0,0,.49,1.31,1.53,1.53,0,0,0,1.3.49,2.16,2.16,0,0,0,1.31-.49,1.64,1.64,0,0,0,.49-1.31,1.69,1.69,0,0,0-1.8-1.79Z" style="fill:#fff"/></g></g><g id="Group_117" data-name="Group 117"><g id="Group_116" data-name="Group 116"><path id="Path_61" data-name="Path 61" d="M152.32,62.31a.91.91,0,0,1-.41-.19.46.46,0,0,1-.19-.41v-2.5a1.61,1.61,0,0,0-3.21,0v2.5a.81.81,0,0,1-.19.41.5.5,0,0,1-.7,0,.46.46,0,0,1-.19-.41V57a.92.92,0,0,1,.19-.4.5.5,0,0,1,.7,0,.46.46,0,0,1,.19.4h0a2.38,2.38,0,0,1,1.6-.49,2.66,2.66,0,0,1,1.9.82,2.8,2.8,0,0,1,.82,1.9v2.5a.91.91,0,0,1-.19.41C152.62,62.31,152.42,62.31,152.32,62.31Z" style="fill:#fff"/></g></g><g id="Group_119" data-name="Group 119"><g id="Group_118" data-name="Group 118"><path id="Path_62" data-name="Path 62" d="M156.42,62.31a2.75,2.75,0,0,1-2-.81,2.64,2.64,0,0,1-.82-2,2.8,2.8,0,0,1,.82-2,2.58,2.58,0,0,1,2-.81,2.74,2.74,0,0,1,2,.81,2.57,2.57,0,0,1,.82,2,.91.91,0,0,1-.19.41.48.48,0,0,1-.41.19h-4.1a1.92,1.92,0,0,0,.49.82,1.62,1.62,0,0,0,1.3.49,1.86,1.86,0,0,0,1.2-.41.62.62,0,0,1,.71,0,.53.53,0,0,1,.19.41,1,1,0,0,1-.19.41A3.55,3.55,0,0,1,156.42,62.31Zm-1.79-3.42h3.51a2.14,2.14,0,0,0-.49-.82,1.65,1.65,0,0,0-1.31-.49,2.11,2.11,0,0,0-1.3.49c-.11.33-.3.52-.41.82Z" style="fill:#fff"/></g></g><g id="Group_121" data-name="Group 121"><g id="Group_120" data-name="Group 120"><path id="Path_63" data-name="Path 63" d="M162.46,62.31a1.84,1.84,0,0,1-2.09-1.56,1.57,1.57,0,0,1,0-.53V57.61h-.19a1,1,0,0,1-.41-.19.48.48,0,0,1-.19-.41.91.91,0,0,1,.19-.41.46.46,0,0,1,.41-.19h.19V54.62a.91.91,0,0,1,.19-.41A.45.45,0,0,1,161,54a.91.91,0,0,1,.41.19.48.48,0,0,1,.19.41v1.79h.6a1,1,0,0,1,.41.19.48.48,0,0,1,.19.41.91.91,0,0,1-.19.41.46.46,0,0,1-.41.19h-.6v2.61c0,.7.3,1,1,1a1,1,0,0,1,.41.19.53.53,0,0,1,.19.41.68.68,0,0,1-.19.41A1.82,1.82,0,0,1,162.46,62.31Z" style="fill:#fff"/></g></g></g><g id="Group_126" data-name="Group 126"><g id="Group_124" data-name="Group 124"><g id="Group_123" data-name="Group 123"><path id="Path_64" data-name="Path 64" d="M107,19.37a1.42,1.42,0,0,1,2.83,0V36.61a10,10,0,0,1-2.91,7.13,9.55,9.55,0,0,1-7.13,2.91,10,10,0,0,1-7.12-2.91,9.55,9.55,0,0,1-2.91-7.13,10,10,0,0,1,2.91-7.12,9.51,9.51,0,0,1,7.12-2.91,10,10,0,0,1,7.13,2.91l.11.11V19.37Zm0,17.35a7,7,0,0,0-2.09-5.11,6.93,6.93,0,0,0-5.12-2.1,7,7,0,0,0-5.11,2.1,6.87,6.87,0,0,0-2.09,5.11,7.15,7.15,0,0,0,7.2,7.21A7.15,7.15,0,0,0,107,36.84Z" style="fill:#fff"/><path id="Path_65" data-name="Path 65" d="M129.15,29.6A9.53,9.53,0,0,0,122,26.69a9.89,9.89,0,0,0-7.12,2.91A9.49,9.49,0,0,0,112,36.72a9.93,9.93,0,0,0,2.91,7.13A9.57,9.57,0,0,0,122,46.76a10,10,0,0,0,7.13-2.91,9.59,9.59,0,0,0,2.91-7.13A9,9,0,0,0,129.15,29.6Zm-2,12.15a6.92,6.92,0,0,1-5.11,2.1,7,7,0,0,1-5.12-2.1,7,7,0,0,1-2.09-5.11,7,7,0,0,1,2.09-5.11,6.94,6.94,0,0,1,5.12-2.1,7,7,0,0,1,5.11,2.1,6.87,6.87,0,0,1,2.09,5.11A7,7,0,0,1,127.16,41.75Z" style="fill:#fff"/><path id="Path_66" data-name="Path 66" d="M137.09,45.34a1.42,1.42,0,1,1-2.83,0V28.1a1.42,1.42,0,0,1,2.83,0v.41a7.55,7.55,0,0,1,5-1.8A8,8,0,0,1,147.72,29c.3.3.6.7.9,1a8.47,8.47,0,0,1,6.53-3.32A8,8,0,0,1,160.78,29a7.75,7.75,0,0,1,2.31,5.62V45.4a1.42,1.42,0,0,1-2.83,0V34.57a4.53,4.53,0,0,0-1.5-3.5,4.81,4.81,0,0,0-3.51-1.5,4.48,4.48,0,0,0-3.51,1.5,4.83,4.83,0,0,0-1.5,3.5V45.26a1.41,1.41,0,1,1-2.82,0V34.52a4.55,4.55,0,0,0-1.5-3.51,4.87,4.87,0,0,0-3.51-1.5A4.53,4.53,0,0,0,138.9,31a4.85,4.85,0,0,0-1.5,3.51V45.34Z" style="fill:#fff"/></g></g><g id="Group_125" data-name="Group 125"><path id="Path_67" data-name="Path 67" d="M75.41,29.41a7,7,0,0,0-5.12,2.09,7.69,7.69,0,0,0-2,3.62h14A7.32,7.32,0,0,0,75.41,29.41Z" style="fill:#fff"/><path id="Path_68" data-name="Path 68" d="M37.5,53.17l-1.5,10a1.74,1.74,0,0,0,1.43,2l.28,0H50.55a1.68,1.68,0,0,0,1.75-1.61,1.81,1.81,0,0,0,0-.4l-1.5-10a1.6,1.6,0,0,1,1.39-1.78h21A15.18,15.18,0,0,0,87.67,32,14.8,14.8,0,0,0,72.52,21.19h-.11A10.3,10.3,0,0,0,55.77,14a22.64,22.64,0,0,0-43.51,7.5,15.14,15.14,0,0,0,2.8,30H36A1.5,1.5,0,0,1,37.51,53,1.15,1.15,0,0,1,37.5,53.17ZM23.55,46.35a1.32,1.32,0,0,1-1,.41c-4.81,0-7.23-2.42-7.23-7.24v-10H13.89a1.42,1.42,0,0,1,0-2.83h1.42V19.43a1.41,1.41,0,1,1,2.82,0h0v7.23H21a1.42,1.42,0,1,1,0,2.83H18.13v10c0,2.91,1.42,4.33,4.33,4.33a1.39,1.39,0,0,1,1.41,1.37v0A.92.92,0,0,1,23.55,46.35ZM41.79,29.81a1.27,1.27,0,0,1-1,.41,1.11,1.11,0,0,1-.6-.11,6.41,6.41,0,0,0-2.8-.49,7,7,0,0,0-5.12,2.1,7,7,0,0,0-2.09,5.11v8.62a1.42,1.42,0,1,1-2.83,0h0V28.1a1.42,1.42,0,0,1,2.83,0h0v1.6a9.86,9.86,0,0,1,7.23-3,9,9,0,0,1,3.81.71,1.89,1.89,0,0,1,.6.41,1.27,1.27,0,0,1,.41,1,2.19,2.19,0,0,1-.44,1ZM62,37.54A1.35,1.35,0,0,1,61,38H45.3a6.46,6.46,0,0,0,2,3.61,6.82,6.82,0,0,0,3.92,2H52.4a8.07,8.07,0,0,0,4.51-1.41c.6-.49,1.2-1,1.72-1.5.11-.11.19-.3.4-.41a1.47,1.47,0,0,1,1.12-.19,1.44,1.44,0,0,1,.9.6,1.68,1.68,0,0,1-.11,1.82,9.06,9.06,0,0,1-2.31,2.1,9.91,9.91,0,0,1-7,1.9h-.52a.57.57,0,0,1-.4-.11h-.11a10,10,0,0,1-5.22-2.8,9.51,9.51,0,0,1-2.91-7.13,9.92,9.92,0,0,1,2.91-7.12,9.53,9.53,0,0,1,7.12-2.91,10,10,0,0,1,7.13,2.91,9.39,9.39,0,0,1,2.91,7.13A4.47,4.47,0,0,1,62,37.54Zm8.32,4a6.88,6.88,0,0,0,3.92,2h1.17a8.15,8.15,0,0,0,4.51-1.41c.6-.49,1.2-1,1.72-1.5.11-.11.19-.3.4-.41A1.39,1.39,0,0,1,83.13,40a1.41,1.41,0,0,1,.9.6,1.45,1.45,0,0,1,.19,1.11,1.55,1.55,0,0,1-.3.71,8.84,8.84,0,0,1-2.31,2.09,9.91,9.91,0,0,1-7,1.9h-.52a.52.52,0,0,1-.4-.11h-.09a10,10,0,0,1-5.22-2.8,9.53,9.53,0,0,1-2.91-7.12,10,10,0,0,1,2.91-7.13,9.59,9.59,0,0,1,7.13-2.91,9.94,9.94,0,0,1,10,9.84v.2a1.4,1.4,0,0,1-1.37,1.42H68.36a6.53,6.53,0,0,0,1.93,3.7Z" style="fill:#fff"/><path id="Path_69" data-name="Path 69" d="M52.35,29.41a7,7,0,0,0-5.12,2.09,7.61,7.61,0,0,0-2,3.62h14a6.4,6.4,0,0,0-2-3.62A6.24,6.24,0,0,0,52.35,29.41Z" style="fill:#fff"/></g></g></g></g></g></g></svg>