<svg xmlns="http://www.w3.org/2000/svg" viewBox="0 0 196.78 286.37"><title>consulenza</title><g id="Livello_2" data-name="Livello 2"><g id="Livello_1-2" data-name="Livello 1"><path d="M98.39,196.78a98.39,98.39,0,1,1,98.39-98.39A98.5,98.5,0,0,1,98.39,196.78Zm0-179.17A80.79,80.79,0,1,0,179.18,98.4,80.88,80.88,0,0,0,98.39,17.61Z" style="fill:#fff"/><path d="M98.39,286.37A98.39,98.39,0,1,1,196.78,188,98.5,98.5,0,0,1,98.39,286.37Zm0-179.18A80.79,80.79,0,1,0,179.18,188,80.88,80.88,0,0,0,98.39,107.19Z" style="fill:#fff"/><circle cx="73.12" cy="144.44" r="7.31" style="fill:#fff"/><circle cx="98.39" cy="144.44" r="7.31" style="fill:#fff"/><circle cx="122.71" cy="144.73" r="7.6" style="fill:#fff"/><polygon points="118.25 185.77 147.1 217.59 147.1 173.59 118.25 185.77" style="fill:#fff"/></g></g></svg>