<svg xmlns="http://www.w3.org/2000/svg" viewBox="0 0 244.87 247.38"><title>formazione</title><g id="Livello_2" data-name="Livello 2"><g id="Livello_1-2" data-name="Livello 1"><path d="M152,138.86l-6.58-11.37A70.05,70.05,0,0,0,85,92.59V77.39a85.31,85.31,0,0,1,65.7,31.12A69.79,69.79,0,1,0,24.56,119.88L11.4,127.49a85,85,0,1,1,147.18,0Z" style="fill:#fff"/><path d="M85,247.38A85,85,0,0,1,11.4,119.89L18,108.52l6.58,11.37A70,70,0,0,0,85,154.79c26.36,0,50.18-12.86,62.16-33.55l13.16,7.61C145.62,154.23,116.77,170,85,170a85.31,85.31,0,0,1-65.7-31.12A69.8,69.8,0,0,0,137,208.93c13.73-15.2,20.05-35.72,17.79-57.78L170,149.6c2.7,26.39-5,51.08-21.63,69.51A85.5,85.5,0,0,1,85,247.38Z" style="fill:#fff"/><path d="M145.42,127.5A70.05,70.05,0,0,0,85,92.6V77.4a85.31,85.31,0,0,1,73.59,42.49Z" style="fill:#fff"/><path d="M85,170A85.31,85.31,0,0,1,11.4,127.5l13.16-7.61A70,70,0,0,0,85,154.79Z" style="fill:#fff"/><path d="M88.34,100.89l4.38-33a4,4,0,0,0-6-3.89l-22,13.81a4,4,0,0,0-.81,6.06l17.65,19.18A4,4,0,0,0,88.34,100.89Z" style="fill:#fff"/><path d="M98.71,170.4A209.6,209.6,0,0,1,73,168.76c-.83-.09-1.37-.17-1.59-.21a6.51,6.51,0,0,1,1.86-12.89l1.31.17c9.52,1,71.67,4.16,116.28-79.57L181,71.82a6.51,6.51,0,0,1-.16-11.8l43.7-21.1a6.51,6.51,0,0,1,9.2,4.48l11,50.33a6.52,6.52,0,0,1-9.26,7.22l-10.35-5.14a128.07,128.07,0,0,1-28.88,39.29C178,152,147,170.4,98.71,170.4ZM199.09,65.68l3.39,1.53a6.5,6.5,0,0,1,3.15,8.84c-19.87,39.89-43.7,62.88-65.73,76a115.56,115.56,0,0,0,47.48-26.54c21-19.39,28.12-40.5,28.19-40.71A6.52,6.52,0,0,1,224.65,81l4.44,2.21-6.32-29Z" style="fill:#fff"/></g></g></svg>