<svg xmlns="http://www.w3.org/2000/svg" viewBox="0 0 159.22 232.05"><title>incentivi</title><g id="Livello_2" data-name="Livello 2"><g id="Livello_1-2" data-name="Livello 1"><path d="M143,128.62,137.47,119a68,68,0,0,0-36.17-29.8l4.19-12.1A81.25,81.25,0,0,1,142,103a68.31,68.31,0,0,0,1.45-41.3c-4.81-17.51-16.17-32.38-31.15-40.77-31-17.38-72.41-6.07-90.39,24.71C10,65.89,10,92.19,21.77,112.63L10.67,119c-14-24.35-14-55.7.13-79.86C32.22,2.5,81.55-11,118.51,9.75c18,10.06,31.52,27.76,37.24,48.55s3.09,42.92-7.19,60.74Z" style="fill:#fff"/><path d="M79.62,232.05A79.6,79.6,0,0,1,10.68,112.62L16.22,103l5.54,9.58A67.06,67.06,0,0,0,79.61,146v12.81A79.92,79.92,0,0,1,17.2,128.62,66.81,66.81,0,1,0,137.46,119l11.08-6.41A79.59,79.59,0,0,1,79.62,232.05Z" style="fill:#fff"/><path d="M79.62,158.83A79.89,79.89,0,0,1,10.69,119l11.08-6.41A67.06,67.06,0,0,0,79.62,146Z" style="fill:#fff"/><path d="M89.65,110.52H69.91A5.49,5.49,0,0,1,64.42,105V98.29c-14-5.79-23.06-18.87-23.06-33.7,0-20.27,17.26-36.76,38.48-36.76,20.89,0,36.65,15.8,36.65,36.76,0,13-8.8,26.35-21.35,33.12V105a5.5,5.5,0,0,1-5.49,5.49Zm-14.25-11h8.76V94.26a5.49,5.49,0,0,1,3.35-5.06c10.26-4.34,18-14.92,18-24.61,0-14.7-11-25.79-25.67-25.79-15.17,0-27.5,11.57-27.5,25.79,0,11.28,7.7,21.16,19.15,24.57a5.49,5.49,0,0,1,3.91,5.6Z" style="fill:#fff"/><path d="M91.59,118.57H67.41a2.74,2.74,0,1,1,0-5.48H91.59a2.74,2.74,0,1,1,0,5.48Z" style="fill:#fff"/><path d="M91.59,127.67H67.41a2.74,2.74,0,0,1,0-5.48H91.59a2.74,2.74,0,0,1,0,5.48Z" style="fill:#fff"/><path d="M70.73,127H88.28l-.14.21c-4.83,7.31-12.67,7.22-17.41-.21Z" style="fill:#fff"/><path d="M79.5,133.54h-.07c-3.63,0-7-2.18-9.48-6l-.9-1.41H90l-1.09,1.63C86.42,131.47,83.08,133.54,79.5,133.54Zm-7-5.63a9.11,9.11,0,0,0,6.94,3.8h0c2.55,0,5-1.34,7-3.8Z" style="fill:#fff"/></g></g></svg>