<svg xmlns="http://www.w3.org/2000/svg" viewBox="0 0 206.84 300.97"><title>privacy</title><g id="Livello_2" data-name="Livello 2"><g id="Livello_1-2" data-name="Livello 1"><path d="M185,168.94l-8-13.83c-16.16-27.93-45.08-46-73.68-46V90.65c30.42,0,59.93,15.43,80.17,41.15a84.93,84.93,0,1,0-153.56,14l-16,9.27a103.41,103.41,0,1,1,179.08,0Z" style="fill:#fff"/><path d="M103.42,301A103.39,103.39,0,0,1,13.88,145.85l8-13.83,8,13.83a85.24,85.24,0,0,0,73.53,42.47v18.49a103.79,103.79,0,0,1-79.94-37.87A84.92,84.92,0,1,0,177,155.11l16-9.26A103.39,103.39,0,0,1,103.42,301Z" style="fill:#fff"/><path d="M103.42,206.81a103.79,103.79,0,0,1-89.54-51.7l16-9.26a85.24,85.24,0,0,0,73.53,42.47v18.49Z" style="fill:#fff"/><path d="M103.27,206.81c-32.33,0-58.63-26.06-58.63-58.08s26.3-58.08,58.63-58.08,58.63,26.06,58.63,58.08S135.6,206.81,103.27,206.81Zm0-97.67c-22.13,0-40.14,17.76-40.14,39.59s18,39.59,40.14,39.59,40.14-17.76,40.14-39.59S125.4,109.14,103.27,109.14Z" style="fill:#fff"/><path d="M89.76,105.39H71.27v-38a32.11,32.11,0,0,1,64.22,0V104H117V67.42a13.62,13.62,0,0,0-27.24,0Z" style="fill:#fff"/><circle cx="103.42" cy="139.93" r="10.55" style="fill:#fff"/><polygon points="106.34 146.52 103.56 146.52 102.98 146.52 100.19 146.52 95.36 167.61 102.98 167.61 103.56 167.61 111.18 167.61 106.34 146.52" style="fill:#fff"/></g></g></svg>