<svg xmlns="http://www.w3.org/2000/svg" viewBox="0 0 186.14 270.88"><title>salute</title><g id="Livello_2" data-name="Livello 2"><g id="Livello_1-2" data-name="Livello 1"><path d="M166.45,152.06l-7.2-12.45a76.72,76.72,0,0,0-66.18-38.22V84.75a93.4,93.4,0,0,1,72,34.08A76.43,76.43,0,1,0,26.9,131.27l-14.41,8.34a93.07,93.07,0,1,1,161.16,0Z" style="fill:#fff"/><path d="M93.07,270.88A93,93,0,0,1,12.49,131.27l14.41,8.34a76.42,76.42,0,1,0,132.34,0l14.41-8.34A93,93,0,0,1,93.07,270.88Z" style="fill:#fff"/><path d="M159.24,139.61a76.72,76.72,0,0,0-66.18-38.22V84.75a93.4,93.4,0,0,1,80.58,46.53Z" style="fill:#fff"/><path d="M66.21,188.22c-3.78,0-7-3.13-8.36-4.44s-3.2-3.11-5.34-5.21c-4.26-4.17-9.6-9.43-14-13.75-4.15-4.08-7.45-7.33-8.14-8-9-8.63-36.31-34.89-14.46-61.25C21.65,88.66,29,84.91,37.13,84.75h.56c11.35,0,21.69,6.83,28,12.14C72.82,90.75,84.41,83.25,97.36,85a28.4,28.4,0,0,1,18.86,10.32h0c21.73,27-4.59,51.92-20.32,66.81-1.58,1.5-3.09,2.93-4.49,4.3L71.6,185.77A7.52,7.52,0,0,1,66.21,188.22ZM37.7,101.39h-.26c-2.07,0-5.22.59-8.72,4.81C20.21,116.47,24,127.66,41.9,144.83c.71.68,4.06,4,8.28,8.13,4.55,4.47,11,10.8,15.56,15.28l14-13.73c1.46-1.42,3-2.92,4.68-4.48,26.12-24.73,26.82-34.32,18.79-44.29h0a11.71,11.71,0,0,0-8-4.25c-7.94-1-17.47,6.09-23.23,12.51l-6.19,6.88L59.58,114C56.62,110.7,46.24,101.39,37.7,101.39Z" style="fill:#fff"/></g></g></svg>