<svg xmlns="http://www.w3.org/2000/svg" viewBox="0 0 171.98 250.26"><title>sostenibilita</title><g id="Livello_2" data-name="Livello 2"><g id="Livello_1-2" data-name="Livello 1"><path d="M153.78,140.49,147.13,129A70.87,70.87,0,0,0,86,93.68V78.3a86.3,86.3,0,0,1,66.47,31.48,70.61,70.61,0,1,0-127.61,11.5L11.54,129a86,86,0,1,1,148.88,0Z" style="fill:#fff"/><path d="M86,250.26a86,86,0,0,1-74.44-129l6.65-11.5,6.65,11.5A70.87,70.87,0,0,0,86,156.59V172a86.3,86.3,0,0,1-66.47-31.48A70.61,70.61,0,1,0,147.13,129l13.31-7.7A86,86,0,0,1,86,250.26Z" style="fill:#fff"/><path d="M147.13,129A70.87,70.87,0,0,0,86,93.67V78.29a86.28,86.28,0,0,1,74.45,43Z" style="fill:#fff"/><path d="M86,172a86.29,86.29,0,0,1-74.45-43l13.31-7.7A70.87,70.87,0,0,0,86,156.6Z" style="fill:#fff"/><path d="M85.6,172a8.13,8.13,0,0,1-1.47-.14c-19.79-3.86-55.58-25.54-49.35-80a7.69,7.69,0,0,1,9.87-6.48c.54.17,54.1,17.16,48.61,79.6a7.69,7.69,0,0,1-3,5.47A7.8,7.8,0,0,1,85.6,172ZM49.43,104.34c.11,30.88,17.67,44,28.79,49.26C77.24,125,60.4,110.68,49.43,104.34Z" style="fill:#fff"/></g></g></svg>